HIERARCHY
ROOT hip
{
  OFFSET 0 0 0
  CHANNELS 6 Xposition Yposition Zposition Zrotation Yrotation Xrotation
  JOINT abdomen
  {
    OFFSET 0 20.6881 -0.73152
    CHANNELS 3 Zrotation Xrotation Yrotation
    JOINT chest
    {
      OFFSET 0 11.7043 -0.48768
      CHANNELS 3 Zrotation Xrotation Yrotation
      JOINT neck
      {
        OFFSET 0 22.1894 -2.19456
        CHANNELS 3 Zrotation Xrotation Yrotation
        JOINT head
        {
          OFFSET -0.24384 7.07133 1.2192
          CHANNELS 3 Zrotation Xrotation Yrotation
          JOINT leftEye
          {
            OFFSET 4.14528 8.04674 8.04672
            CHANNELS 3 Zrotation Xrotation Yrotation
            End Site
            {
              OFFSET 1 0 0
            }
          }
          JOINT rightEye
          {
            OFFSET -3.6576 8.04674 8.04672
            CHANNELS 3 Zrotation Xrotation Yrotation
            End Site
            {
              OFFSET 1 0 0
            }
          }
        }
      }
      JOINT rCollar
      {
        OFFSET -2.68224 19.2634 -4.8768
        CHANNELS 3 Zrotation Xrotation Yrotation
        JOINT rShldr
        {
          OFFSET -8.77824 -1.95073 1.46304
          CHANNELS 3 Zrotation Xrotation Yrotation
          JOINT rForeArm
          {
            OFFSET -28.1742 -1.7115 0.48768
            CHANNELS 3 Zrotation Xrotation Yrotation
            JOINT rHand
            {
              OFFSET -22.5879 0.773209 7.07136
              CHANNELS 3 Zrotation Xrotation Yrotation
              JOINT rThumb1
              {
                OFFSET -1.2192 -0.487915 3.41376
                CHANNELS 3 Zrotation Xrotation Yrotation
                JOINT rThumb2
                {
                  OFFSET -3.37035 -0.52449 3.41376
                  CHANNELS 3 Zrotation Xrotation Yrotation
                  End Site
                  {
                    OFFSET -1.78271 -1.18214 1.43049
                  }
                }
              }
              JOINT rIndex1
              {
                OFFSET -7.75947 0.938293 5.60832
                CHANNELS 3 Zrotation Xrotation Yrotation
                JOINT rIndex2
                {
                  OFFSET -2.54057 -0.884171 1.56538
                  CHANNELS 3 Zrotation Xrotation Yrotation
                  End Site
                  {
                    OFFSET -1.62519 -0.234802 1.16502
                  }
                }
              }
              JOINT rMid1
              {
                OFFSET -8.24714 1.18213 3.41376
                CHANNELS 3 Zrotation Xrotation Yrotation
                JOINT rMid2
                {
                  OFFSET -3.10165 -0.590103 1.0647
                  CHANNELS 3 Zrotation Xrotation Yrotation
                  End Site
                  {
                    OFFSET -2.48547 -0.328903 0.83742
                  }
                }
              }
              JOINT rRing1
              {
                OFFSET -8.82822 0.546677 1.51678
                CHANNELS 3 Zrotation Xrotation Yrotation
                JOINT rRing2
                {
                  OFFSET -2.60934 -0.819778 -0.0198488
                  CHANNELS 3 Zrotation Xrotation Yrotation
                  End Site
                  {
                    OFFSET -2.33842 -0.294052 0.168128
                  }
                }
              }
              JOINT rPinky1
              {
                OFFSET -8.27202 -0.0477905 -0.4584
                CHANNELS 3 Zrotation Xrotation Yrotation
                JOINT rPinky2
                {
                  OFFSET -1.82734 -0.647385 -0.700984
                  CHANNELS 3 Zrotation Xrotation Yrotation
                  End Site
                  {
                    OFFSET -1.69225 -0.51767 -0.607171
                  }
                }
              }
            }
          }
        }
      }
      JOINT lCollar
      {
        OFFSET 2.68224 19.2634 -4.8768
        CHANNELS 3 Zrotation Xrotation Yrotation
        JOINT lShldr
        {
          OFFSET 8.77824 -1.95073 1.46304
          CHANNELS 3 Zrotation Xrotation Yrotation
          JOINT lForeArm
          {
            OFFSET 28.1742 -1.7115 0.48768
            CHANNELS 3 Zrotation Xrotation Yrotation
            JOINT lHand
            {
              OFFSET 22.5879 0.773209 7.07136
              CHANNELS 3 Zrotation Xrotation Yrotation
              JOINT lThumb1
              {
                OFFSET 1.2192 -0.487915 3.41376
                CHANNELS 3 Zrotation Xrotation Yrotation
                JOINT lThumb2
                {
                  OFFSET 3.37035 -0.52449 3.41376
                  CHANNELS 3 Zrotation Xrotation Yrotation
                  End Site
                  {
                    OFFSET 1.78271 -1.18214 1.43049
                  }
                }
              }
              JOINT lIndex1
              {
                OFFSET 7.75947 0.938293 5.60832
                CHANNELS 3 Zrotation Xrotation Yrotation
                JOINT lIndex2
                {
                  OFFSET 2.54057 -0.884171 1.56538
                  CHANNELS 3 Zrotation Xrotation Yrotation
                  End Site
                  {
                    OFFSET 1.62519 -0.234802 1.16502
                  }
                }
              }
              JOINT lMid1
              {
                OFFSET 8.24714 1.18213 3.41376
                CHANNELS 3 Zrotation Xrotation Yrotation
                JOINT lMid2
                {
                  OFFSET 3.10165 -0.590103 1.0647
                  CHANNELS 3 Zrotation Xrotation Yrotation
                  End Site
                  {
                    OFFSET 2.48547 -0.328903 0.83742
                  }
                }
              }
              JOINT lRing1
              {
                OFFSET 8.82822 0.546677 1.51678
                CHANNELS 3 Zrotation Xrotation Yrotation
                JOINT lRing2
                {
                  OFFSET 2.60934 -0.819778 -0.0198488
                  CHANNELS 3 Zrotation Xrotation Yrotation
                  End Site
                  {
                    OFFSET 2.33842 -0.294052 0.168128
                  }
                }
              }
              JOINT lPinky1
              {
                OFFSET 8.27202 -0.0477905 -0.4584
                CHANNELS 3 Zrotation Xrotation Yrotation
                JOINT lPinky2
                {
                  OFFSET 1.82734 -0.647385 -0.700984
                  CHANNELS 3 Zrotation Xrotation Yrotation
                  End Site
                  {
                    OFFSET 1.69225 -0.51767 -0.607171
                  }
                }
              }
            }
          }
        }
      }
    }
  }
  JOINT rButtock
  {
    OFFSET -8.77824 4.35084 1.2192
    CHANNELS 3 Zrotation Xrotation Yrotation
    JOINT rThigh
    {
      OFFSET 0 -1.70687 -2.19456
      CHANNELS 3 Zrotation Xrotation Yrotation
      JOINT rShin
      {
        OFFSET 0 -36.8199 0.73152
        CHANNELS 3 Zrotation Xrotation Yrotation
        JOINT rFoot
        {
          OFFSET 0.73152 -45.1104 -5.12064
          CHANNELS 3 Zrotation Xrotation Yrotation
          End Site
          {
            OFFSET -1.1221 -3.69964 12.103
          }
        }
      }
    }
  }
  JOINT lButtock
  {
    OFFSET 8.77824 4.35084 1.2192
    CHANNELS 3 Zrotation Xrotation Yrotation
    JOINT lThigh
    {
      OFFSET 0 -1.70687 -2.19456
      CHANNELS 3 Zrotation Xrotation Yrotation
      JOINT lShin
      {
        OFFSET 0 -36.8199 0.73152
        CHANNELS 3 Zrotation Xrotation Yrotation
        JOINT lFoot
        {
          OFFSET -0.73152 -45.1104 -5.12064
          CHANNELS 3 Zrotation Xrotation Yrotation
          End Site
          {
            OFFSET 1.1221 -3.69964 12.103
          }
        }
      }
    }
  }
}
MOTION
Frames:	4
Frame Time:	0.03333
-24.285899999999998 56.3181 90.8913 -158.269769 49.950565 -152.129073 1.549729 6.628315 62.477046 -3.096999 -8.661065 -48.799017 10.933842 16.518749 76.840668 -27.834806 -3.529078 -59.730861 0.000997 0.0 0.003046 0.000713 -0.0 -0.002198 4.145217 -41.348032 -7.967161 -136.455965 9.402977 -139.308867 150.745016 -74.018498 -97.190716 -13.317285 -11.037401 -4.03627 -7.372492 7.082407 1.576736 17.375262 -21.411164 -7.123607 -90.271566 41.061693 75.836274 -172.412195 -23.773212 114.276939 -4.93511 13.149249 3.106455 3.281182 0.007841 -0.022182 -0.009548 -0.849244 -0.266031 -155.836657 -53.423717 178.793159 7.537929 23.390008 6.676888 -0.85633 -7.480244 -2.589415 130.082236 54.814547 -133.940059 60.836954 35.105764 -38.017405 176.861062 1.834048 110.083674 8.631919 21.612288 -0.415738 3.657504 3.569247 -0.673433 112.381596 -1.879485 -101.876939 174.871632 -54.074664 -119.338487 53.915285 55.9981 -41.985793 154.152073 11.612164 -139.434944 169.662165 -24.169724 -143.921498 -0.004618 1.284338 -0.404528 -9.696688 6.76052 -0.815299 159.942507 65.878478 151.098752 144.50047 0.830234 139.245333 -0.000255 -2.5e-05 -0.00035 -18.006444 13.928768 92.663511 17.818069 0.308214 -98.735245 108.703589 -31.274621 -10.686287 -179.976131 75.75145 -0.017791 -141.463343 -6.225313 83.701699 71.528003 3.817017 -108.264758 156.11606 -32.930282 -53.848364
-24.1386 55.6404 92.8054 -157.944528 48.95662 -151.936553 2.762059 4.386066 110.986828 -5.999354 -3.863766 -98.897805 11.729341 17.935997 85.641395 -28.758453 1.663569 -65.942458 0.003487 0.0 0.003703 0.0037 -0.0 -0.003807 -17.755736 47.952546 19.780274 -106.015015 -11.627161 154.44065 153.938522 -14.279385 -63.720425 -22.380455 2.542246 1.978684 -168.078533 -5.757301 89.868171 -149.284149 3.771379 76.100284 88.303446 -75.45742 39.614298 -5.82798 31.767607 4.964229 -175.671744 -50.13556 144.134115 -164.6645 -8.498532 143.371998 -145.057393 6.300261 178.887912 10.944523 18.368077 -6.832018 -127.339804 -25.909027 -125.038109 -5.27647 -17.791939 -8.688997 152.376639 13.053922 -157.85346 -162.838539 -50.749231 166.71767 -2.410202 -47.213647 -53.485923 7.924966 35.553967 -2.53887 173.150563 -10.824167 -89.916826 170.410488 -7.84665 -90.56858 -9.205269 -16.183108 4.237615 174.686886 -33.358048 -107.288929 14.989496 32.332543 -10.931582 165.045095 -10.597116 -143.833561 145.107899 -0.872641 178.855386 -10.797036 65.859926 -0.006011 146.993371 18.048294 143.412777 17.079436 -32.594265 18.825781 0.038722 -0.000858 0.028462 -14.255831 13.403763 -144.480218 -21.675543 -19.804357 -87.929593 99.117441 45.039749 -174.401645 179.954481 75.750506 0.037059 -140.124411 -8.835437 -122.638381 -74.811031 -22.619942 141.058097 -75.656581 17.092967 8.853622
-23.9765 54.9641 94.63510000000001 -157.690797 47.815677 -152.477845 8.828636 6.212887 -76.817003 5.355277 -0.502197 87.502657 -8.855514 18.297875 -65.01118 32.466962 3.239201 85.945364 -0.002754 0.0 -0.000976 0.003392 -0.0 -0.003102 4.222884 -52.801903 -10.429969 82.681602 37.753677 -80.263799 -20.266738 -14.947769 115.163374 -19.083828 -74.716126 -27.384028 0.488296 -0.480834 -0.072988 -163.579611 -73.225185 115.072216 -20.154261 24.995763 14.163231 5.574907 4.259465 -0.338841 -10.380241 24.704537 7.168322 -2.006842 14.625724 2.636722 -145.122551 0.692363 -179.344442 -150.180638 -35.992719 -172.788312 5.54157 16.465258 4.983315 30.054502 77.008719 4.84521 -2.250816 -16.307068 3.309976 -44.050485 22.200828 -25.03492 3.387043 -6.065401 -38.76326 6.282245 41.808046 -4.417389 -6.882298 -6.872139 0.651645 9.920501 9.993635 -4.14917 41.043264 37.832307 -31.77353 -177.177595 -36.237817 -107.765952 -3.29227 -10.027897 1.614424 -167.237816 -64.697967 -132.640192 0.003318 -0.293553 0.093479 -11.128823 -13.599913 1.691166 -27.56784 80.620005 -9.717474 134.43398 -21.179178 130.901613 -0.004768 0.000248 -0.002697 -12.845166 13.244369 -179.417305 6.321687 -26.971476 93.019134 70.393733 50.205796 14.606463 179.989234 75.749642 0.009297 -143.020674 -10.083997 100.504466 74.630529 -17.473387 -85.123583 -78.828209 -17.309688 17.597238
-23.833399999999997 54.357699999999994 96.27839999999999 -156.956709 47.034224 -153.217693 6.909519 9.773488 24.677706 0.269265 -8.389636 -14.611729 11.220103 24.48697 122.502752 -29.130787 20.711734 -96.627277 -0.005838 0.0 -0.000765 -0.000132 0.0 -0.000798 -156.753327 -12.573624 163.672512 -18.892896 -44.474842 45.827081 -163.789996 -39.031846 -55.509354 -11.508949 -51.698126 -13.134994 -173.823561 -11.492567 89.888343 -172.364748 -9.358144 91.931762 -146.349595 -8.04279 119.155356 -166.037486 -23.191115 119.182737 -166.199643 -24.29807 145.092126 -155.090226 17.505237 139.017691 -145.122122 1.446336 -179.583578 -115.60178 -73.65485 -137.228798 0.015627 0.044523 0.016959 -150.540782 22.839224 -146.088849 157.889893 -23.093242 -165.646553 23.329155 -12.159108 31.543575 -164.864688 25.673578 137.364829 30.050311 73.722864 -21.505089 177.857754 -15.429304 -89.556502 141.879406 11.261911 -73.861645 6.635293 9.932571 -4.12387 169.488016 -22.984954 -109.305068 158.430104 0.072987 -142.093725 -12.959569 -28.838308 1.029979 0.013515 -1.259447 0.393905 -10.691452 -56.562039 7.670465 155.30324 49.600928 149.57833 165.846971 62.450834 146.355065 -179.97808 75.748248 -0.015521 90.171444 78.196802 179.681 26.960302 3.168424 -168.321666 -52.229756 -60.002488 42.603621 -179.983759 75.750784 -0.013957 -143.275458 -10.854293 88.334086 87.838529 0.0153 129.499363 167.230425 22.542852 -153.859479
